ISO-10303-21;
HEADER;
FILE_DESCRIPTION (( 'STEP AP203' ),
    '1' );
FILE_NAME ('(C) Lens Flat Version xN.STEP',
    '2025-07-31T17:03:54',
    ( '' ),
    ( '' ),
    'SwSTEP 2.0',
    'SolidWorks 2025',
    '' );
FILE_SCHEMA (( 'CONFIG_CONTROL_DESIGN' ));
ENDSEC;

DATA;
#1 = DIRECTION ( 'NONE',  ( 0.000000000000000000, 0.000000000000000000, 1.000000000000000000 ) ) ;
#2 = CYLINDRICAL_SURFACE ( 'NONE', #239, 4.400000000000000355 ) ;
#3 = ADVANCED_FACE ( 'NONE', ( #55 ), #82, .T. ) ;
#4 = CIRCLE ( 'NONE', #81, 4.400000000000000355 ) ;
#5 = DATE_TIME_ROLE ( 'creation_date' ) ;
#6 = PERSON_AND_ORGANIZATION ( #96, #174 ) ;
#7 = APPLICATION_CONTEXT ( 'configuration controlled 3d designs of mechanical parts and assemblies' ) ;
#8 = ORIENTED_EDGE ( 'NONE', *, *, #229, .T. ) ;
#9 = CIRCLE ( 'NONE', #165, 5.000000000000000000 ) ;
#10 = EDGE_LOOP ( 'NONE', ( #13, #247, #8, #166 ) ) ;
#11 = DIRECTION ( 'NONE',  ( -0.000000000000000000, -0.000000000000000000, -1.000000000000000000 ) ) ;
#12 = CC_DESIGN_SECURITY_CLASSIFICATION ( #162, ( #71 ) ) ;
#13 = ORIENTED_EDGE ( 'NONE', *, *, #18, .T. ) ;
#14 = CARTESIAN_POINT ( 'NONE',  ( 5.000000000000000000, 6.123233995736766282E-16, 1.000000000000000000 ) ) ;
#15 = DIRECTION ( 'NONE',  ( -0.000000000000000000, -0.000000000000000000, -1.000000000000000000 ) ) ;
#16 = DIRECTION ( 'NONE',  ( 0.000000000000000000, 0.000000000000000000, 1.000000000000000000 ) ) ;
#17 = CARTESIAN_POINT ( 'NONE',  ( 4.249999999999987566, 5.204748896376235908E-16, 1.000000000000000000 ) ) ;
#18 = EDGE_CURVE ( 'NONE', #251, #39, #99, .T. ) ;
#19 = DIRECTION ( 'NONE',  ( 1.000000000000000000, 0.000000000000000000, 0.000000000000000000 ) ) ;
#20 = APPLICATION_PROTOCOL_DEFINITION ( 'international standard', 'config_control_design', 1994, #98 ) ;
#21 = VECTOR ( 'NONE', #65, 1000.000000000000000 ) ;
#22 = LINE ( 'NONE', #238, #155 ) ;
#23 = EDGE_CURVE ( 'NONE', #39, #251, #9, .T. ) ;
#24 = DIRECTION ( 'NONE',  ( -0.000000000000000000, -0.000000000000000000, -1.000000000000000000 ) ) ;
#25 = DATE_AND_TIME ( #113, #243 ) ;
#26 = CALENDAR_DATE ( 2025, 31, 7 ) ;
#27 = DESIGN_CONTEXT ( 'detailed design', #7, 'design' ) ;
#28 = VERTEX_POINT ( 'NONE', #170 ) ;
#29 = PERSON_AND_ORGANIZATION_ROLE ( 'classification_officer' ) ;
#30 = EDGE_LOOP ( 'NONE', ( #141, #104 ) ) ;
#31 = AXIS2_PLACEMENT_3D ( 'NONE', #241, #111, #64 ) ;
#32 = PERSON_AND_ORGANIZATION ( #96, #174 ) ;
#33 = DIRECTION ( 'NONE',  ( -1.000000000000000000, 0.000000000000000000, 0.000000000000000000 ) ) ;
#34 = DIRECTION ( 'NONE',  ( 0.000000000000000000, 0.000000000000000000, -1.000000000000000000 ) ) ;
#35 = CONICAL_SURFACE ( 'NONE', #169, 4.249999999999987566, 0.7853981633974533860 ) ;
#36 = DIRECTION ( 'NONE',  ( -1.000000000000000000, 0.000000000000000000, 0.000000000000000000 ) ) ;
#37 = CARTESIAN_POINT ( 'NONE',  ( 0.000000000000000000, 0.000000000000000000, 0.000000000000000000 ) ) ;
#38 = PRODUCT_DEFINITION_SHAPE ( 'NONE', 'NONE',  #223 ) ;
#39 = VERTEX_POINT ( 'NONE', #101 ) ;
#40 = CIRCLE ( 'NONE', #219, 4.400000000000000355 ) ;
#41 = PLANE ( 'NONE',  #138 ) ;
#42 = CC_DESIGN_DATE_AND_TIME_ASSIGNMENT ( #87, #227, ( #162 ) ) ;
#43 = CARTESIAN_POINT ( 'NONE',  ( 0.000000000000000000, 0.000000000000000000, 6.000000000000000000 ) ) ;
#44 = DIRECTION ( 'NONE',  ( 1.000000000000000000, 0.000000000000000000, 0.000000000000000000 ) ) ;
#45 = ADVANCED_FACE ( 'NONE', ( #272 ), #35, .T. ) ;
#46 = CARTESIAN_POINT ( 'NONE',  ( -4.400000000000000355, 0.000000000000000000, 6.000000000000000000 ) ) ;
#47 = PERSON_AND_ORGANIZATION ( #96, #174 ) ;
#48 = SHAPE_DEFINITION_REPRESENTATION ( #38, #220 ) ;
#49 = ORIENTED_EDGE ( 'NONE', *, *, #134, .F. ) ;
#50 = PERSON_AND_ORGANIZATION_ROLE ( 'creator' ) ;
#51 = ORIENTED_EDGE ( 'NONE', *, *, #144, .F. ) ;
#52 = APPROVAL_PERSON_ORGANIZATION ( #209, #256, #242 ) ;
#53 = ORIENTED_EDGE ( 'NONE', *, *, #262, .F. ) ;
#54 = PRODUCT_RELATED_PRODUCT_CATEGORY ( 'detail', '', ( #216 ) ) ;
#55 = FACE_OUTER_BOUND ( 'NONE', #259, .T. ) ;
#56 = CARTESIAN_POINT ( 'NONE',  ( 4.400000000000000355, 5.388445916248354013E-16, 0.8499999999999885425 ) ) ;
#57 = CONICAL_SURFACE ( 'NONE', #31, 4.249999999999987566, 0.7853981633974533860 ) ;
#58 = CARTESIAN_POINT ( 'NONE',  ( 0.000000000000000000, 0.000000000000000000, 0.8499999999999885425 ) ) ;
#59 = DIRECTION ( 'NONE',  ( 1.000000000000000000, 0.000000000000000000, -0.000000000000000000 ) ) ;
#60 = CARTESIAN_POINT ( 'NONE',  ( -4.400000000000000355, 0.000000000000000000, 6.000000000000000000 ) ) ;
#61 = CIRCLE ( 'NONE', #236, 5.000000000000000000 ) ;
#62 = LINE ( 'NONE', #221, #21 ) ;
#63 = ADVANCED_FACE ( 'NONE', ( #193 ), #218, .F. ) ;
#64 = DIRECTION ( 'NONE',  ( -1.000000000000000000, 0.000000000000000000, 0.000000000000000000 ) ) ;
#65 = DIRECTION ( 'NONE',  ( -0.000000000000000000, -0.000000000000000000, -1.000000000000000000 ) ) ;
#66 = VECTOR ( 'NONE', #107, 1000.000000000000000 ) ;
#67 = PERSON_AND_ORGANIZATION ( #96, #174 ) ;
#68 = ORIENTED_EDGE ( 'NONE', *, *, #262, .T. ) ;
#69 = PERSON_AND_ORGANIZATION ( #96, #174 ) ;
#70 = AXIS2_PLACEMENT_3D ( 'NONE', #176, #171, #252 ) ;
#71 = PRODUCT_DEFINITION_FORMATION_WITH_SPECIFIED_SOURCE ( 'ANY', '', #216, .NOT_KNOWN. ) ;
#72 = PERSON_AND_ORGANIZATION_ROLE ( 'design_supplier' ) ;
#73 = ORIENTED_EDGE ( 'NONE', *, *, #123, .F. ) ;
#74 = EDGE_CURVE ( 'NONE', #145, #28, #269, .T. ) ;
#75 = ORIENTED_EDGE ( 'NONE', *, *, #172, .F. ) ;
#76 = CIRCLE ( 'NONE', #70, 4.400000000000000355 ) ;
#77 = EDGE_LOOP ( 'NONE', ( #73, #68, #127, #51 ) ) ;
#78 = ADVANCED_FACE ( 'NONE', ( #188 ), #267, .T. ) ;
#79 = DIRECTION ( 'NONE',  ( -1.000000000000000000, 0.000000000000000000, 0.000000000000000000 ) ) ;
#80 = DIRECTION ( 'NONE',  ( 1.000000000000000000, 0.000000000000000000, 0.000000000000000000 ) ) ;
#81 = AXIS2_PLACEMENT_3D ( 'NONE', #58, #231, #36 ) ;
#82 = CYLINDRICAL_SURFACE ( 'NONE', #143, 5.000000000000000000 ) ;
#83 = CARTESIAN_POINT ( 'NONE',  ( 0.000000000000000000, 0.000000000000000000, 0.000000000000000000 ) ) ;
#84 = CC_DESIGN_APPROVAL ( #256, ( #223 ) ) ;
#85 = CARTESIAN_POINT ( 'NONE',  ( 0.000000000000000000, 0.000000000000000000, 0.000000000000000000 ) ) ;
#86 = DIRECTION ( 'NONE',  ( -1.000000000000000000, 0.000000000000000000, 0.000000000000000000 ) ) ;
#87 = DATE_AND_TIME ( #140, #270 ) ;
#88 = AXIS2_PLACEMENT_3D ( 'NONE', #85, #154, #44 ) ;
#89 = COORDINATED_UNIVERSAL_TIME_OFFSET ( 5, 0, .BEHIND. ) ;
#90 = PERSON_AND_ORGANIZATION_ROLE ( 'design_owner' ) ;
#91 = EDGE_LOOP ( 'NONE', ( #210, #49, #116, #246 ) ) ;
#92 = AXIS2_PLACEMENT_3D ( 'NONE', #83, #149, #212 ) ;
#93 = EDGE_LOOP ( 'NONE', ( #186, #264 ) ) ;
#94 = CALENDAR_DATE ( 2025, 31, 7 ) ;
#95 = EDGE_LOOP ( 'NONE', ( #75, #230, #118, #203 ) ) ;
#96 = PERSON ( 'UNSPECIFIED', 'UNSPECIFIED', 'UNSPECIFIED', ('UNSPECIFIED'), ('UNSPECIFIED'), ('UNSPECIFIED') ) ;
#97 = FACE_OUTER_BOUND ( 'NONE', #10, .T. ) ;
#98 = APPLICATION_CONTEXT ( 'configuration controlled 3d designs of mechanical parts and assemblies' ) ;
#99 = CIRCLE ( 'NONE', #254, 5.000000000000000000 ) ;
#100 = ADVANCED_FACE ( 'NONE', ( #97 ), #147, .T. ) ;
#101 = CARTESIAN_POINT ( 'NONE',  ( 5.000000000000000000, 6.123233995736766282E-16, 0.2499999999999945877 ) ) ;
#102 = CC_DESIGN_PERSON_AND_ORGANIZATION_ASSIGNMENT ( #183, #50, ( #71 ) ) ;
#103 = DIRECTION ( 'NONE',  ( -0.000000000000000000, -0.000000000000000000, -1.000000000000000000 ) ) ;
#104 = ORIENTED_EDGE ( 'NONE', *, *, #229, .F. ) ;
#105 = CLOSED_SHELL ( 'NONE', ( #189, #142, #100, #3, #63, #78, #234, #45 ) ) ;
#106 = VERTEX_POINT ( 'NONE', #56 ) ;
#107 = DIRECTION ( 'NONE',  ( 0.7071067811865511255, 8.659560562354977232E-17, -0.7071067811865440200 ) ) ;
#108 = APPROVAL ( #225, 'UNSPECIFIED' ) ;
#109 =( NAMED_UNIT ( * ) PLANE_ANGLE_UNIT ( ) SI_UNIT ( $, .RADIAN. ) );
#110 = CC_DESIGN_PERSON_AND_ORGANIZATION_ASSIGNMENT ( #6, #206, ( #223 ) ) ;
#111 = DIRECTION ( 'NONE',  ( 0.000000000000000000, 0.000000000000000000, -1.000000000000000000 ) ) ;
#112 = DIRECTION ( 'NONE',  ( -0.7071067811865511255, 0.000000000000000000, -0.7071067811865440200 ) ) ;
#113 = CALENDAR_DATE ( 2025, 31, 7 ) ;
#114 = AXIS2_PLACEMENT_3D ( 'NONE', #37, #16, #59 ) ;
#115 = APPROVAL_DATE_TIME ( #158, #256 ) ;
#116 = ORIENTED_EDGE ( 'NONE', *, *, #194, .T. ) ;
#117 = COORDINATED_UNIVERSAL_TIME_OFFSET ( 5, 0, .BEHIND. ) ;
#118 = ORIENTED_EDGE ( 'NONE', *, *, #123, .T. ) ;
#119 = DATE_AND_TIME ( #26, #275 ) ;
#120 = AXIS2_PLACEMENT_3D ( 'NONE', #173, #1, #150 ) ;
#121 = LOCAL_TIME ( 13, 3, 54.00000000000000000, #204 ) ;
#122 = APPROVAL_ROLE ( '' ) ;
#123 = EDGE_CURVE ( 'NONE', #106, #208, #4, .T. ) ;
#124 = CARTESIAN_POINT ( 'NONE',  ( 0.000000000000000000, 0.000000000000000000, 0.2499999999999945877 ) ) ;
#125 = DIRECTION ( 'NONE',  ( 0.000000000000000000, 0.000000000000000000, -1.000000000000000000 ) ) ;
#126 = CC_DESIGN_APPROVAL ( #108, ( #71 ) ) ;
#127 = ORIENTED_EDGE ( 'NONE', *, *, #18, .F. ) ;
#128 = DIRECTION ( 'NONE',  ( 0.000000000000000000, 0.000000000000000000, -1.000000000000000000 ) ) ;
#129 = EDGE_CURVE ( 'NONE', #39, #28, #215, .T. ) ;
#130 = ORIENTED_EDGE ( 'NONE', *, *, #157, .T. ) ;
#131 = APPROVAL ( #258, 'UNSPECIFIED' ) ;
#132 = FACE_OUTER_BOUND ( 'NONE', #93, .T. ) ;
#133 = DIRECTION ( 'NONE',  ( 0.000000000000000000, 0.000000000000000000, 1.000000000000000000 ) ) ;
#134 = EDGE_CURVE ( 'NONE', #182, #164, #40, .T. ) ;
#135 = APPROVAL_PERSON_ORGANIZATION ( #69, #131, #122 ) ;
#136 = MECHANICAL_CONTEXT ( 'NONE', #98, 'mechanical' ) ;
#137 = LINE ( 'NONE', #46, #192 ) ;
#138 = AXIS2_PLACEMENT_3D ( 'NONE', #195, #133, #257 ) ;
#139 = APPLICATION_PROTOCOL_DEFINITION ( 'international standard', 'config_control_design', 1994, #7 ) ;
#140 = CALENDAR_DATE ( 2025, 31, 7 ) ;
#141 = ORIENTED_EDGE ( 'NONE', *, *, #74, .F. ) ;
#142 = ADVANCED_FACE ( 'NONE', ( #217 ), #2, .T. ) ;
#143 = AXIS2_PLACEMENT_3D ( 'NONE', #233, #228, #33 ) ;
#144 = EDGE_CURVE ( 'NONE', #208, #251, #153, .T. ) ;
#145 = VERTEX_POINT ( 'NONE', #199 ) ;
#146 = CARTESIAN_POINT ( 'NONE',  ( 0.000000000000000000, 0.000000000000000000, 0.2499999999999945877 ) ) ;
#147 = CYLINDRICAL_SURFACE ( 'NONE', #205, 5.000000000000000000 ) ;
#148 = DIRECTION ( 'NONE',  ( 1.000000000000000000, 0.000000000000000000, 0.000000000000000000 ) ) ;
#149 = DIRECTION ( 'NONE',  ( 0.000000000000000000, 0.000000000000000000, 1.000000000000000000 ) ) ;
#150 = DIRECTION ( 'NONE',  ( 1.000000000000000000, 0.000000000000000000, 0.000000000000000000 ) ) ;
#151 = VECTOR ( 'NONE', #103, 1000.000000000000000 ) ;
#152 = LINE ( 'NONE', #17, #66 ) ;
#153 = LINE ( 'NONE', #274, #200 ) ;
#154 = DIRECTION ( 'NONE',  ( 0.000000000000000000, 0.000000000000000000, 1.000000000000000000 ) ) ;
#155 = VECTOR ( 'NONE', #273, 1000.000000000000000 ) ;
#156 = CARTESIAN_POINT ( 'NONE',  ( 4.400000000000000355, 5.388445916248354013E-16, 6.000000000000000000 ) ) ;
#157 = EDGE_CURVE ( 'NONE', #251, #145, #22, .T. ) ;
#158 = DATE_AND_TIME ( #159, #213 ) ;
#159 = CALENDAR_DATE ( 2025, 31, 7 ) ;
#160 = ORIENTED_EDGE ( 'NONE', *, *, #129, .F. ) ;
#161 = DATE_AND_TIME ( #94, #121 ) ;
#162 = SECURITY_CLASSIFICATION ( '', '', #245 ) ;
#163 = APPROVAL_DATE_TIME ( #119, #108 ) ;
#164 = VERTEX_POINT ( 'NONE', #156 ) ;
#165 = AXIS2_PLACEMENT_3D ( 'NONE', #124, #34, #187 ) ;
#166 = ORIENTED_EDGE ( 'NONE', *, *, #157, .F. ) ;
#167 = CARTESIAN_POINT ( 'NONE',  ( 0.000000000000000000, 0.000000000000000000, 1.000000000000000000 ) ) ;
#168 = CARTESIAN_POINT ( 'NONE',  ( 0.000000000000000000, 0.000000000000000000, 6.000000000000000000 ) ) ;
#169 = AXIS2_PLACEMENT_3D ( 'NONE', #271, #128, #214 ) ;
#170 = CARTESIAN_POINT ( 'NONE',  ( 5.000000000000000000, 6.123233995736766282E-16, 0.000000000000000000 ) ) ;
#171 = DIRECTION ( 'NONE',  ( -0.000000000000000000, -0.000000000000000000, 1.000000000000000000 ) ) ;
#172 = EDGE_CURVE ( 'NONE', #164, #182, #184, .T. ) ;
#173 = CARTESIAN_POINT ( 'NONE',  ( 0.000000000000000000, 0.000000000000000000, 6.000000000000000000 ) ) ;
#174 = ORGANIZATION ( 'UNSPECIFIED', 'UNSPECIFIED', '' ) ;
#175 = DIRECTION ( 'NONE',  ( 0.000000000000000000, 0.000000000000000000, 1.000000000000000000 ) ) ;
#176 = CARTESIAN_POINT ( 'NONE',  ( 0.000000000000000000, 0.000000000000000000, 0.8499999999999885425 ) ) ;
#177 = EDGE_CURVE ( 'NONE', #208, #106, #76, .T. ) ;
#178 =( GEOMETRIC_REPRESENTATION_CONTEXT ( 3 ) GLOBAL_UNCERTAINTY_ASSIGNED_CONTEXT ( ( #226 ) ) GLOBAL_UNIT_ASSIGNED_CONTEXT ( ( #197, #109, #255 ) ) REPRESENTATION_CONTEXT ( 'NONE', 'WORKASPACE' ) );
#179 = COORDINATED_UNIVERSAL_TIME_OFFSET ( 5, 0, .BEHIND. ) ;
#180 = CC_DESIGN_DATE_AND_TIME_ASSIGNMENT ( #25, #5, ( #223 ) ) ;
#181 = APPROVAL_DATE_TIME ( #161, #131 ) ;
#182 = VERTEX_POINT ( 'NONE', #60 ) ;
#183 = PERSON_AND_ORGANIZATION ( #96, #174 ) ;
#184 = CIRCLE ( 'NONE', #120, 4.400000000000000355 ) ;
#185 = ORIENTED_EDGE ( 'NONE', *, *, #23, .T. ) ;
#186 = ORIENTED_EDGE ( 'NONE', *, *, #134, .T. ) ;
#187 = DIRECTION ( 'NONE',  ( 1.000000000000000000, 0.000000000000000000, 0.000000000000000000 ) ) ;
#188 = FACE_OUTER_BOUND ( 'NONE', #91, .T. ) ;
#189 = ADVANCED_FACE ( 'NONE', ( #222 ), #57, .T. ) ;
#190 = CARTESIAN_POINT ( 'NONE',  ( 0.000000000000000000, 0.000000000000000000, 6.000000000000000000 ) ) ;
#191 = ORIENTED_EDGE ( 'NONE', *, *, #144, .T. ) ;
#192 = VECTOR ( 'NONE', #224, 1000.000000000000000 ) ;
#193 = FACE_OUTER_BOUND ( 'NONE', #30, .T. ) ;
#194 = EDGE_CURVE ( 'NONE', #182, #208, #137, .T. ) ;
#195 = CARTESIAN_POINT ( 'NONE',  ( 0.000000000000000000, 0.000000000000000000, 6.000000000000000000 ) ) ;
#196 = CARTESIAN_POINT ( 'NONE',  ( -5.000000000000000000, 0.000000000000000000, 0.2499999999999945877 ) ) ;
#197 =( LENGTH_UNIT ( ) NAMED_UNIT ( * ) SI_UNIT ( .MILLI., .METRE. ) );
#198 = CARTESIAN_POINT ( 'NONE',  ( -4.400000000000000355, 0.000000000000000000, 0.8499999999999885425 ) ) ;
#199 = CARTESIAN_POINT ( 'NONE',  ( -5.000000000000000000, 0.000000000000000000, 0.000000000000000000 ) ) ;
#200 = VECTOR ( 'NONE', #112, 1000.000000000000000 ) ;
#201 = APPROVAL_STATUS ( 'not_yet_approved' ) ;
#202 = APPROVAL_ROLE ( '' ) ;
#203 = ORIENTED_EDGE ( 'NONE', *, *, #194, .F. ) ;
#204 = COORDINATED_UNIVERSAL_TIME_OFFSET ( 5, 0, .BEHIND. ) ;
#205 = AXIS2_PLACEMENT_3D ( 'NONE', #167, #15, #249 ) ;
#206 = PERSON_AND_ORGANIZATION_ROLE ( 'creator' ) ;
#207 = CC_DESIGN_APPROVAL ( #131, ( #162 ) ) ;
#208 = VERTEX_POINT ( 'NONE', #198 ) ;
#209 = PERSON_AND_ORGANIZATION ( #96, #174 ) ;
#210 = ORIENTED_EDGE ( 'NONE', *, *, #237, .F. ) ;
#211 = MANIFOLD_SOLID_BREP ( 'Chamfer1', #105 ) ;
#212 = DIRECTION ( 'NONE',  ( 1.000000000000000000, 0.000000000000000000, 0.000000000000000000 ) ) ;
#213 = LOCAL_TIME ( 13, 3, 54.00000000000000000, #117 ) ;
#214 = DIRECTION ( 'NONE',  ( -1.000000000000000000, 0.000000000000000000, 0.000000000000000000 ) ) ;
#215 = LINE ( 'NONE', #14, #151 ) ;
#216 = PRODUCT ( '(C) Lens Flat Version xN', '(C) Lens Flat Version xN', '', ( #136 ) ) ;
#217 = FACE_OUTER_BOUND ( 'NONE', #95, .T. ) ;
#218 = PLANE ( 'NONE',  #114 ) ;
#219 = AXIS2_PLACEMENT_3D ( 'NONE', #168, #250, #148 ) ;
#220 = ADVANCED_BREP_SHAPE_REPRESENTATION ( '(C) Lens Flat Version xN', ( #211, #88 ), #178 ) ;
#221 = CARTESIAN_POINT ( 'NONE',  ( 4.400000000000000355, 5.388445916248354013E-16, 6.000000000000000000 ) ) ;
#222 = FACE_OUTER_BOUND ( 'NONE', #77, .T. ) ;
#223 = PRODUCT_DEFINITION ( 'UNKNOWN', '', #71, #27 ) ;
#224 = DIRECTION ( 'NONE',  ( -0.000000000000000000, -0.000000000000000000, -1.000000000000000000 ) ) ;
#225 = APPROVAL_STATUS ( 'not_yet_approved' ) ;
#226 = UNCERTAINTY_MEASURE_WITH_UNIT (LENGTH_MEASURE( 1.000000000000000082E-05 ), #197, 'distance_accuracy_value', 'NONE');
#227 = DATE_TIME_ROLE ( 'classification_date' ) ;
#228 = DIRECTION ( 'NONE',  ( -0.000000000000000000, -0.000000000000000000, -1.000000000000000000 ) ) ;
#229 = EDGE_CURVE ( 'NONE', #28, #145, #61, .T. ) ;
#230 = ORIENTED_EDGE ( 'NONE', *, *, #237, .T. ) ;
#231 = DIRECTION ( 'NONE',  ( -0.000000000000000000, -0.000000000000000000, 1.000000000000000000 ) ) ;
#232 = ORIENTED_EDGE ( 'NONE', *, *, #74, .T. ) ;
#233 = CARTESIAN_POINT ( 'NONE',  ( 0.000000000000000000, 0.000000000000000000, 1.000000000000000000 ) ) ;
#234 = ADVANCED_FACE ( 'NONE', ( #132 ), #41, .T. ) ;
#235 = CARTESIAN_POINT ( 'NONE',  ( 0.000000000000000000, 0.000000000000000000, 0.000000000000000000 ) ) ;
#236 = AXIS2_PLACEMENT_3D ( 'NONE', #235, #175, #19 ) ;
#237 = EDGE_CURVE ( 'NONE', #164, #106, #62, .T. ) ;
#238 = CARTESIAN_POINT ( 'NONE',  ( -5.000000000000000000, 0.000000000000000000, 1.000000000000000000 ) ) ;
#239 = AXIS2_PLACEMENT_3D ( 'NONE', #43, #24, #86 ) ;
#240 = APPROVAL_PERSON_ORGANIZATION ( #47, #108, #202 ) ;
#241 = CARTESIAN_POINT ( 'NONE',  ( 0.000000000000000000, 0.000000000000000000, 1.000000000000000000 ) ) ;
#242 = APPROVAL_ROLE ( '' ) ;
#243 = LOCAL_TIME ( 13, 3, 54.00000000000000000, #179 ) ;
#244 = PERSON_AND_ORGANIZATION ( #96, #174 ) ;
#245 = SECURITY_CLASSIFICATION_LEVEL ( 'unclassified' ) ;
#246 = ORIENTED_EDGE ( 'NONE', *, *, #177, .T. ) ;
#247 = ORIENTED_EDGE ( 'NONE', *, *, #129, .T. ) ;
#248 = ORIENTED_EDGE ( 'NONE', *, *, #23, .F. ) ;
#249 = DIRECTION ( 'NONE',  ( -1.000000000000000000, 0.000000000000000000, 0.000000000000000000 ) ) ;
#250 = DIRECTION ( 'NONE',  ( 0.000000000000000000, 0.000000000000000000, 1.000000000000000000 ) ) ;
#251 = VERTEX_POINT ( 'NONE', #196 ) ;
#252 = DIRECTION ( 'NONE',  ( -1.000000000000000000, 0.000000000000000000, 0.000000000000000000 ) ) ;
#253 = CC_DESIGN_PERSON_AND_ORGANIZATION_ASSIGNMENT ( #67, #29, ( #162 ) ) ;
#254 = AXIS2_PLACEMENT_3D ( 'NONE', #146, #125, #80 ) ;
#255 =( NAMED_UNIT ( * ) SI_UNIT ( $, .STERADIAN. ) SOLID_ANGLE_UNIT ( ) );
#256 = APPROVAL ( #201, 'UNSPECIFIED' ) ;
#257 = DIRECTION ( 'NONE',  ( 1.000000000000000000, 0.000000000000000000, -0.000000000000000000 ) ) ;
#258 = APPROVAL_STATUS ( 'not_yet_approved' ) ;
#259 = EDGE_LOOP ( 'NONE', ( #160, #185, #130, #232 ) ) ;
#260 = COORDINATED_UNIVERSAL_TIME_OFFSET ( 5, 0, .BEHIND. ) ;
#261 = AXIS2_PLACEMENT_3D ( 'NONE', #190, #11, #79 ) ;
#262 = EDGE_CURVE ( 'NONE', #106, #39, #152, .T. ) ;
#263 = CC_DESIGN_PERSON_AND_ORGANIZATION_ASSIGNMENT ( #244, #90, ( #216 ) ) ;
#264 = ORIENTED_EDGE ( 'NONE', *, *, #172, .T. ) ;
#265 = EDGE_LOOP ( 'NONE', ( #53, #268, #191, #248 ) ) ;
#266 = CC_DESIGN_PERSON_AND_ORGANIZATION_ASSIGNMENT ( #32, #72, ( #71 ) ) ;
#267 = CYLINDRICAL_SURFACE ( 'NONE', #261, 4.400000000000000355 ) ;
#268 = ORIENTED_EDGE ( 'NONE', *, *, #177, .F. ) ;
#269 = CIRCLE ( 'NONE', #92, 5.000000000000000000 ) ;
#270 = LOCAL_TIME ( 13, 3, 54.00000000000000000, #260 ) ;
#271 = CARTESIAN_POINT ( 'NONE',  ( 0.000000000000000000, 0.000000000000000000, 1.000000000000000000 ) ) ;
#272 = FACE_OUTER_BOUND ( 'NONE', #265, .T. ) ;
#273 = DIRECTION ( 'NONE',  ( -0.000000000000000000, -0.000000000000000000, -1.000000000000000000 ) ) ;
#274 = CARTESIAN_POINT ( 'NONE',  ( -4.249999999999987566, 0.000000000000000000, 1.000000000000000000 ) ) ;
#275 = LOCAL_TIME ( 13, 3, 54.00000000000000000, #89 ) ;
ENDSEC;
END-ISO-10303-21;
