ISO-10303-21;
HEADER;
FILE_DESCRIPTION (( 'STEP AP203' ),
    '1' );
FILE_NAME ('(C) Lens Domed Version x4.STEP',
    '2025-07-30T14:51:35',
    ( '' ),
    ( '' ),
    'SwSTEP 2.0',
    'SolidWorks 2025',
    '' );
FILE_SCHEMA (( 'CONFIG_CONTROL_DESIGN' ));
ENDSEC;

DATA;
#1 = VERTEX_POINT ( 'NONE', #303 ) ;
#2 = ORIENTED_EDGE ( 'NONE', *, *, #282, .F. ) ;
#3 = CIRCLE ( 'NONE', #80, 4.400000000000000355 ) ;
#4 = LOCAL_TIME ( 10, 51, 35.00000000000000000, #174 ) ;
#5 = CARTESIAN_POINT ( 'NONE',  ( 0.000000000000000000, 0.000000000000000000, 0.8499999999999885425 ) ) ;
#6 = PRODUCT_DEFINITION_SHAPE ( 'NONE', 'NONE',  #135 ) ;
#7 = CYLINDRICAL_SURFACE ( 'NONE', #271, 4.400000000000000355 ) ;
#8 = EDGE_CURVE ( 'NONE', #1, #225, #104, .T. ) ;
#9 = DIRECTION ( 'NONE',  ( -1.000000000000000000, 0.000000000000000000, 0.000000000000000000 ) ) ;
#10 = AXIS2_PLACEMENT_3D ( 'NONE', #291, #319, #168 ) ;
#11 = LOCAL_TIME ( 10, 51, 35.00000000000000000, #298 ) ;
#12 = DIRECTION ( 'NONE',  ( -1.000000000000000000, 0.000000000000000000, 0.000000000000000000 ) ) ;
#13 = PRODUCT ( '(C) Lens Domed Version x4', '(C) Lens Domed Version x4', '', ( #117 ) ) ;
#14 = CARTESIAN_POINT ( 'NONE',  ( 5.000000000000000000, 6.123233995736766282E-16, 0.2499999999999945877 ) ) ;
#15 = ORIENTED_EDGE ( 'NONE', *, *, #8, .F. ) ;
#16 = DIRECTION ( 'NONE',  ( 0.000000000000000000, 0.000000000000000000, -1.000000000000000000 ) ) ;
#17 = CIRCLE ( 'NONE', #10, 4.400000000000000355 ) ;
#18 =( LENGTH_UNIT ( ) NAMED_UNIT ( * ) SI_UNIT ( .MILLI., .METRE. ) );
#19 = CARTESIAN_POINT ( 'NONE',  ( -4.249999999999987566, 0.000000000000000000, 1.000000000000000000 ) ) ;
#20 = AXIS2_PLACEMENT_3D ( 'NONE', #57, #230, #260 ) ;
#21 = DATE_AND_TIME ( #96, #262 ) ;
#22 = ORIENTED_EDGE ( 'NONE', *, *, #35, .T. ) ;
#23 = VERTEX_POINT ( 'NONE', #244 ) ;
#24 = COORDINATED_UNIVERSAL_TIME_OFFSET ( 5, 0, .BEHIND. ) ;
#25 = CARTESIAN_POINT ( 'NONE',  ( -4.400000000000000355, 0.000000000000000000, 7.000000000000000000 ) ) ;
#26 = VECTOR ( 'NONE', #246, 1000.000000000000000 ) ;
#27 = APPROVAL_ROLE ( '' ) ;
#28 = ORIENTED_EDGE ( 'NONE', *, *, #259, .F. ) ;
#29 = APPROVAL ( #75, 'UNSPECIFIED' ) ;
#30 = ORIENTED_EDGE ( 'NONE', *, *, #167, .T. ) ;
#31 = CARTESIAN_POINT ( 'NONE',  ( 5.000000000000000000, 6.123233995736766282E-16, 0.000000000000000000 ) ) ;
#32 = AXIS2_PLACEMENT_3D ( 'NONE', #83, #184, #283 ) ;
#33 = DIRECTION ( 'NONE',  ( -0.000000000000000000, -0.000000000000000000, -1.000000000000000000 ) ) ;
#34 = DIRECTION ( 'NONE',  ( -1.000000000000000000, 0.000000000000000000, 0.000000000000000000 ) ) ;
#35 = EDGE_CURVE ( 'NONE', #280, #198, #152, .T. ) ;
#36 = DIRECTION ( 'NONE',  ( 0.000000000000000000, 0.000000000000000000, -1.000000000000000000 ) ) ;
#37 = LOCAL_TIME ( 10, 51, 35.00000000000000000, #323 ) ;
#38 = ADVANCED_FACE ( 'NONE', ( #306 ), #252, .F. ) ;
#39 = APPLICATION_PROTOCOL_DEFINITION ( 'international standard', 'config_control_design', 1994, #304 ) ;
#40 = DIRECTION ( 'NONE',  ( 1.000000000000000000, 0.000000000000000000, 0.000000000000000000 ) ) ;
#41 = PERSON ( 'UNSPECIFIED', 'UNSPECIFIED', 'UNSPECIFIED', ('UNSPECIFIED'), ('UNSPECIFIED'), ('UNSPECIFIED') ) ;
#42 = APPROVAL_DATE_TIME ( #178, #153 ) ;
#43 = EDGE_LOOP ( 'NONE', ( #126, #127 ) ) ;
#44 = DATE_AND_TIME ( #272, #4 ) ;
#45 = APPROVAL ( #241, 'UNSPECIFIED' ) ;
#46 = VERTEX_POINT ( 'NONE', #253 ) ;
#47 = ORIENTED_EDGE ( 'NONE', *, *, #201, .F. ) ;
#48 = PERSON_AND_ORGANIZATION ( #41, #217 ) ;
#49 = ORIENTED_EDGE ( 'NONE', *, *, #89, .F. ) ;
#50 = ADVANCED_FACE ( 'NONE', ( #258 ), #185, .T. ) ;
#51 = CC_DESIGN_APPROVAL ( #29, ( #135 ) ) ;
#52 = VERTEX_POINT ( 'NONE', #31 ) ;
#53 = LINE ( 'NONE', #255, #307 ) ;
#54 = CARTESIAN_POINT ( 'NONE',  ( 3.400000000000000355, 0.000000000000000000, 7.000000000000000000 ) ) ;
#55 = DIRECTION ( 'NONE',  ( -1.000000000000000000, 0.000000000000000000, 0.000000000000000000 ) ) ;
#56 = DIRECTION ( 'NONE',  ( -0.000000000000000000, -0.000000000000000000, -1.000000000000000000 ) ) ;
#57 = CARTESIAN_POINT ( 'NONE',  ( -3.400000000000000355, 4.163799117101001052E-16, 6.000000000000000000 ) ) ;
#58 = EDGE_CURVE ( 'NONE', #198, #225, #207, .T. ) ;
#59 = AXIS2_PLACEMENT_3D ( 'NONE', #213, #139, #16 ) ;
#60 = CARTESIAN_POINT ( 'NONE',  ( 0.000000000000000000, 0.000000000000000000, 6.000000000000000000 ) ) ;
#61 =( NAMED_UNIT ( * ) PLANE_ANGLE_UNIT ( ) SI_UNIT ( $, .RADIAN. ) );
#62 = DIRECTION ( 'NONE',  ( 1.000000000000000000, 0.000000000000000000, 0.000000000000000000 ) ) ;
#63 = ADVANCED_FACE ( 'NONE', ( #109 ), #229, .T. ) ;
#64 = DIRECTION ( 'NONE',  ( 1.000000000000000000, 0.000000000000000000, 0.000000000000000000 ) ) ;
#65 = AXIS2_PLACEMENT_3D ( 'NONE', #313, #281, #9 ) ;
#66 = DIRECTION ( 'NONE',  ( 1.000000000000000000, 0.000000000000000000, 0.000000000000000000 ) ) ;
#67 = DATE_TIME_ROLE ( 'classification_date' ) ;
#68 = ORIENTED_EDGE ( 'NONE', *, *, #58, .T. ) ;
#69 = EDGE_CURVE ( 'NONE', #52, #292, #131, .T. ) ;
#70 = COORDINATED_UNIVERSAL_TIME_OFFSET ( 5, 0, .BEHIND. ) ;
#71 = ORIENTED_EDGE ( 'NONE', *, *, #282, .T. ) ;
#72 = CIRCLE ( 'NONE', #149, 3.400000000000000355 ) ;
#73 = PERSON_AND_ORGANIZATION ( #41, #217 ) ;
#74 = EDGE_LOOP ( 'NONE', ( #47, #123, #28, #305 ) ) ;
#75 = APPROVAL_STATUS ( 'not_yet_approved' ) ;
#76 = EDGE_LOOP ( 'NONE', ( #128, #221, #147, #324 ) ) ;
#77 = ADVANCED_BREP_SHAPE_REPRESENTATION ( '(C) Lens Domed Version x4', ( #239, #151 ), #242 ) ;
#78 = DATE_AND_TIME ( #274, #37 ) ;
#79 = ORIENTED_EDGE ( 'NONE', *, *, #259, .T. ) ;
#80 = AXIS2_PLACEMENT_3D ( 'NONE', #284, #231, #84 ) ;
#81 = FACE_OUTER_BOUND ( 'NONE', #177, .T. ) ;
#82 = DIRECTION ( 'NONE',  ( -1.000000000000000000, 0.000000000000000000, 0.000000000000000000 ) ) ;
#83 = CARTESIAN_POINT ( 'NONE',  ( 0.000000000000000000, 0.000000000000000000, 0.000000000000000000 ) ) ;
#84 = DIRECTION ( 'NONE',  ( 1.000000000000000000, 0.000000000000000000, 0.000000000000000000 ) ) ;
#85 = CARTESIAN_POINT ( 'NONE',  ( 0.000000000000000000, 0.000000000000000000, 7.000000000000000000 ) ) ;
#86 = EDGE_CURVE ( 'NONE', #1, #280, #3, .T. ) ;
#87 = DIRECTION ( 'NONE',  ( 0.000000000000000000, 0.000000000000000000, 1.000000000000000000 ) ) ;
#88 = TOROIDAL_SURFACE ( 'NONE', #311, 3.400000000000000355, 1.000000000000000000 ) ;
#89 = EDGE_CURVE ( 'NONE', #46, #292, #53, .T. ) ;
#90 = LINE ( 'NONE', #143, #132 ) ;
#91 = DIRECTION ( 'NONE',  ( 0.000000000000000000, 0.000000000000000000, 1.000000000000000000 ) ) ;
#92 = CONICAL_SURFACE ( 'NONE', #179, 4.249999999999987566, 0.7853981633974533860 ) ;
#93 = PERSON_AND_ORGANIZATION ( #41, #217 ) ;
#94 = ORIENTED_EDGE ( 'NONE', *, *, #175, .T. ) ;
#95 = ADVANCED_FACE ( 'NONE', ( #314 ), #285, .T. ) ;
#96 = CALENDAR_DATE ( 2025, 30, 7 ) ;
#97 = ORIENTED_EDGE ( 'NONE', *, *, #69, .T. ) ;
#98 = DATE_TIME_ROLE ( 'creation_date' ) ;
#99 = VERTEX_POINT ( 'NONE', #54 ) ;
#100 = CC_DESIGN_PERSON_AND_ORGANIZATION_ASSIGNMENT ( #237, #238, ( #13 ) ) ;
#101 = PERSON_AND_ORGANIZATION_ROLE ( 'creator' ) ;
#102 = CARTESIAN_POINT ( 'NONE',  ( 0.000000000000000000, 0.000000000000000000, 0.000000000000000000 ) ) ;
#103 = ORIENTED_EDGE ( 'NONE', *, *, #58, .F. ) ;
#104 = LINE ( 'NONE', #203, #26 ) ;
#105 = CIRCLE ( 'NONE', #279, 5.000000000000000000 ) ;
#106 = DIRECTION ( 'NONE',  ( -1.000000000000000000, 0.000000000000000000, 0.000000000000000000 ) ) ;
#107 = ADVANCED_FACE ( 'NONE', ( #111 ), #92, .T. ) ;
#108 = CARTESIAN_POINT ( 'NONE',  ( 0.000000000000000000, 0.000000000000000000, 7.000000000000000000 ) ) ;
#109 = FACE_OUTER_BOUND ( 'NONE', #220, .T. ) ;
#110 = CC_DESIGN_PERSON_AND_ORGANIZATION_ASSIGNMENT ( #194, #219, ( #233 ) ) ;
#111 = FACE_OUTER_BOUND ( 'NONE', #199, .T. ) ;
#112 = DIRECTION ( 'NONE',  ( 0.000000000000000000, 0.000000000000000000, 1.000000000000000000 ) ) ;
#113 = CARTESIAN_POINT ( 'NONE',  ( 0.000000000000000000, 0.000000000000000000, 0.000000000000000000 ) ) ;
#114 = AXIS2_PLACEMENT_3D ( 'NONE', #161, #265, #166 ) ;
#115 = DIRECTION ( 'NONE',  ( 0.000000000000000000, 0.000000000000000000, -1.000000000000000000 ) ) ;
#116 = CARTESIAN_POINT ( 'NONE',  ( -4.400000000000000355, 0.000000000000000000, 0.8499999999999885425 ) ) ;
#117 = MECHANICAL_CONTEXT ( 'NONE', #304, 'mechanical' ) ;
#118 = VECTOR ( 'NONE', #170, 1000.000000000000000 ) ;
#119 = ADVANCED_FACE ( 'NONE', ( #310 ), #88, .T. ) ;
#120 = SECURITY_CLASSIFICATION ( '', '', #125 ) ;
#121 = APPROVAL_DATE_TIME ( #21, #45 ) ;
#122 = EDGE_LOOP ( 'NONE', ( #195, #273 ) ) ;
#123 = ORIENTED_EDGE ( 'NONE', *, *, #234, .T. ) ;
#124 = ADVANCED_FACE ( 'NONE', ( #159 ), #164, .T. ) ;
#125 = SECURITY_CLASSIFICATION_LEVEL ( 'unclassified' ) ;
#126 = ORIENTED_EDGE ( 'NONE', *, *, #190, .T. ) ;
#127 = ORIENTED_EDGE ( 'NONE', *, *, #130, .T. ) ;
#128 = ORIENTED_EDGE ( 'NONE', *, *, #247, .T. ) ;
#129 = DIRECTION ( 'NONE',  ( -1.000000000000000000, 0.000000000000000000, 0.000000000000000000 ) ) ;
#130 = EDGE_CURVE ( 'NONE', #23, #99, #248, .T. ) ;
#131 = CIRCLE ( 'NONE', #32, 5.000000000000000000 ) ;
#132 = VECTOR ( 'NONE', #209, 1000.000000000000000 ) ;
#133 = CARTESIAN_POINT ( 'NONE',  ( 0.000000000000000000, 0.000000000000000000, 1.000000000000000000 ) ) ;
#134 = CARTESIAN_POINT ( 'NONE',  ( 0.000000000000000000, 0.000000000000000000, 1.000000000000000000 ) ) ;
#135 = PRODUCT_DEFINITION ( 'UNKNOWN', '', #233, #216 ) ;
#136 = DIRECTION ( 'NONE',  ( 0.000000000000000000, 0.000000000000000000, 1.000000000000000000 ) ) ;
#137 = AXIS2_PLACEMENT_3D ( 'NONE', #5, #182, #12 ) ;
#138 = VECTOR ( 'NONE', #295, 1000.000000000000000 ) ;
#139 = DIRECTION ( 'NONE',  ( 0.000000000000000000, -1.000000000000000000, 0.000000000000000000 ) ) ;
#140 = ADVANCED_FACE ( 'NONE', ( #81 ), #228, .T. ) ;
#141 = ORIENTED_EDGE ( 'NONE', *, *, #89, .T. ) ;
#142 = ADVANCED_FACE ( 'NONE', ( #204 ), #7, .T. ) ;
#143 = CARTESIAN_POINT ( 'NONE',  ( 5.000000000000000000, 6.123233995736766282E-16, 1.000000000000000000 ) ) ;
#144 = PERSON_AND_ORGANIZATION_ROLE ( 'classification_officer' ) ;
#145 = ORIENTED_EDGE ( 'NONE', *, *, #247, .F. ) ;
#146 = APPROVAL_PERSON_ORGANIZATION ( #169, #153, #251 ) ;
#147 = ORIENTED_EDGE ( 'NONE', *, *, #201, .T. ) ;
#148 = ORIENTED_EDGE ( 'NONE', *, *, #276, .T. ) ;
#149 = AXIS2_PLACEMENT_3D ( 'NONE', #189, #91, #66 ) ;
#150 = ORIENTED_EDGE ( 'NONE', *, *, #86, .F. ) ;
#151 = AXIS2_PLACEMENT_3D ( 'NONE', #113, #316, #289 ) ;
#152 = LINE ( 'NONE', #25, #118 ) ;
#153 = APPROVAL ( #299, 'UNSPECIFIED' ) ;
#154 = DIRECTION ( 'NONE',  ( -0.000000000000000000, -0.000000000000000000, -1.000000000000000000 ) ) ;
#155 = DIRECTION ( 'NONE',  ( 1.000000000000000000, 0.000000000000000000, 0.000000000000000000 ) ) ;
#156 = VECTOR ( 'NONE', #318, 1000.000000000000000 ) ;
#157 = DIRECTION ( 'NONE',  ( 0.000000000000000000, 0.000000000000000000, -1.000000000000000000 ) ) ;
#158 = CARTESIAN_POINT ( 'NONE',  ( 0.000000000000000000, 0.000000000000000000, 1.000000000000000000 ) ) ;
#159 = FACE_OUTER_BOUND ( 'NONE', #74, .T. ) ;
#160 = CC_DESIGN_APPROVAL ( #153, ( #120 ) ) ;
#161 = CARTESIAN_POINT ( 'NONE',  ( 0.000000000000000000, 0.000000000000000000, 0.8499999999999885425 ) ) ;
#162 = CARTESIAN_POINT ( 'NONE',  ( 0.000000000000000000, 0.000000000000000000, 0.2499999999999945877 ) ) ;
#163 =( NAMED_UNIT ( * ) SI_UNIT ( $, .STERADIAN. ) SOLID_ANGLE_UNIT ( ) );
#164 = CONICAL_SURFACE ( 'NONE', #240, 4.249999999999987566, 0.7853981633974533860 ) ;
#165 = UNCERTAINTY_MEASURE_WITH_UNIT (LENGTH_MEASURE( 1.000000000000000082E-05 ), #18, 'distance_accuracy_value', 'NONE');
#166 = DIRECTION ( 'NONE',  ( -1.000000000000000000, 0.000000000000000000, 0.000000000000000000 ) ) ;
#167 = EDGE_CURVE ( 'NONE', #280, #23, #293, .T. ) ;
#168 = DIRECTION ( 'NONE',  ( 1.000000000000000000, 0.000000000000000000, 0.000000000000000000 ) ) ;
#169 = PERSON_AND_ORGANIZATION ( #41, #217 ) ;
#170 = DIRECTION ( 'NONE',  ( -0.000000000000000000, -0.000000000000000000, -1.000000000000000000 ) ) ;
#171 = CALENDAR_DATE ( 2025, 30, 7 ) ;
#172 = EDGE_LOOP ( 'NONE', ( #250, #150, #300, #270 ) ) ;
#173 = APPROVAL_PERSON_ORGANIZATION ( #245, #45, #27 ) ;
#174 = COORDINATED_UNIVERSAL_TIME_OFFSET ( 5, 0, .BEHIND. ) ;
#175 = EDGE_CURVE ( 'NONE', #292, #52, #227, .T. ) ;
#176 = EDGE_LOOP ( 'NONE', ( #145, #30, #327, #226 ) ) ;
#177 = EDGE_LOOP ( 'NONE', ( #79, #71, #97, #49 ) ) ;
#178 = DATE_AND_TIME ( #171, #11 ) ;
#179 = AXIS2_PLACEMENT_3D ( 'NONE', #158, #157, #82 ) ;
#180 = ORIENTED_EDGE ( 'NONE', *, *, #234, .F. ) ;
#181 = PRODUCT_RELATED_PRODUCT_CATEGORY ( 'detail', '', ( #13 ) ) ;
#182 = DIRECTION ( 'NONE',  ( -0.000000000000000000, -0.000000000000000000, 1.000000000000000000 ) ) ;
#183 = CARTESIAN_POINT ( 'NONE',  ( 0.000000000000000000, 0.000000000000000000, 7.000000000000000000 ) ) ;
#184 = DIRECTION ( 'NONE',  ( 0.000000000000000000, 0.000000000000000000, 1.000000000000000000 ) ) ;
#185 = PLANE ( 'NONE',  #278 ) ;
#186 = DIRECTION ( 'NONE',  ( 0.000000000000000000, 0.000000000000000000, 1.000000000000000000 ) ) ;
#187 = EDGE_CURVE ( 'NONE', #1, #99, #202, .T. ) ;
#188 = CARTESIAN_POINT ( 'NONE',  ( -5.000000000000000000, 0.000000000000000000, 0.000000000000000000 ) ) ;
#189 = CARTESIAN_POINT ( 'NONE',  ( 0.000000000000000000, 0.000000000000000000, 7.000000000000000000 ) ) ;
#190 = EDGE_CURVE ( 'NONE', #99, #23, #72, .T. ) ;
#191 = LINE ( 'NONE', #19, #138 ) ;
#192 = CC_DESIGN_SECURITY_CLASSIFICATION ( #120, ( #233 ) ) ;
#193 = CALENDAR_DATE ( 2025, 30, 7 ) ;
#194 = PERSON_AND_ORGANIZATION ( #41, #217 ) ;
#195 = ORIENTED_EDGE ( 'NONE', *, *, #175, .F. ) ;
#196 = PERSON_AND_ORGANIZATION ( #41, #217 ) ;
#197 = CIRCLE ( 'NONE', #232, 5.000000000000000000 ) ;
#198 = VERTEX_POINT ( 'NONE', #116 ) ;
#199 = EDGE_LOOP ( 'NONE', ( #180, #103, #148, #275 ) ) ;
#200 = VERTEX_POINT ( 'NONE', #14 ) ;
#201 = EDGE_CURVE ( 'NONE', #225, #198, #254, .T. ) ;
#202 = CIRCLE ( 'NONE', #59, 1.000000000000000000 ) ;
#203 = CARTESIAN_POINT ( 'NONE',  ( 4.400000000000000355, 5.388445916248354013E-16, 7.000000000000000000 ) ) ;
#204 = FACE_OUTER_BOUND ( 'NONE', #296, .T. ) ;
#205 = DIRECTION ( 'NONE',  ( 0.000000000000000000, 0.000000000000000000, 1.000000000000000000 ) ) ;
#206 = CARTESIAN_POINT ( 'NONE',  ( 0.000000000000000000, 0.000000000000000000, 7.000000000000000000 ) ) ;
#207 = CIRCLE ( 'NONE', #137, 4.400000000000000355 ) ;
#208 = CARTESIAN_POINT ( 'NONE',  ( 0.000000000000000000, 0.000000000000000000, 6.000000000000000000 ) ) ;
#209 = DIRECTION ( 'NONE',  ( -0.000000000000000000, -0.000000000000000000, -1.000000000000000000 ) ) ;
#210 = CARTESIAN_POINT ( 'NONE',  ( 4.249999999999987566, 5.204748896376235908E-16, 1.000000000000000000 ) ) ;
#211 = AXIS2_PLACEMENT_3D ( 'NONE', #133, #33, #106 ) ;
#212 = CC_DESIGN_DATE_AND_TIME_ASSIGNMENT ( #222, #67, ( #120 ) ) ;
#213 = CARTESIAN_POINT ( 'NONE',  ( 3.400000000000000355, 0.000000000000000000, 6.000000000000000000 ) ) ;
#214 = CARTESIAN_POINT ( 'NONE',  ( 4.400000000000000355, 5.388445916248354013E-16, 0.8499999999999885425 ) ) ;
#215 = AXIS2_PLACEMENT_3D ( 'NONE', #183, #136, #257 ) ;
#216 = DESIGN_CONTEXT ( 'detailed design', #218, 'design' ) ;
#217 = ORGANIZATION ( 'UNSPECIFIED', 'UNSPECIFIED', '' ) ;
#218 = APPLICATION_CONTEXT ( 'configuration controlled 3d designs of mechanical parts and assemblies' ) ;
#219 = PERSON_AND_ORGANIZATION_ROLE ( 'design_supplier' ) ;
#220 = EDGE_LOOP ( 'NONE', ( #2, #223, #141, #94 ) ) ;
#221 = ORIENTED_EDGE ( 'NONE', *, *, #8, .T. ) ;
#222 = DATE_AND_TIME ( #193, #308 ) ;
#223 = ORIENTED_EDGE ( 'NONE', *, *, #268, .T. ) ;
#224 = SHAPE_DEFINITION_REPRESENTATION ( #6, #77 ) ;
#225 = VERTEX_POINT ( 'NONE', #214 ) ;
#226 = ORIENTED_EDGE ( 'NONE', *, *, #187, .F. ) ;
#227 = CIRCLE ( 'NONE', #301, 5.000000000000000000 ) ;
#228 = CYLINDRICAL_SURFACE ( 'NONE', #211, 5.000000000000000000 ) ;
#229 = CYLINDRICAL_SURFACE ( 'NONE', #65, 5.000000000000000000 ) ;
#230 = DIRECTION ( 'NONE',  ( 1.224646799147353207E-16, 1.000000000000000000, -0.000000000000000000 ) ) ;
#231 = DIRECTION ( 'NONE',  ( -0.000000000000000000, -0.000000000000000000, -1.000000000000000000 ) ) ;
#232 = AXIS2_PLACEMENT_3D ( 'NONE', #236, #115, #62 ) ;
#233 = PRODUCT_DEFINITION_FORMATION_WITH_SPECIFIED_SOURCE ( 'ANY', '', #13, .NOT_KNOWN. ) ;
#234 = EDGE_CURVE ( 'NONE', #225, #200, #320, .T. ) ;
#235 = CARTESIAN_POINT ( 'NONE',  ( 0.000000000000000000, 0.000000000000000000, 0.000000000000000000 ) ) ;
#236 = CARTESIAN_POINT ( 'NONE',  ( 0.000000000000000000, 0.000000000000000000, 0.2499999999999945877 ) ) ;
#237 = PERSON_AND_ORGANIZATION ( #41, #217 ) ;
#238 = PERSON_AND_ORGANIZATION_ROLE ( 'design_owner' ) ;
#239 = MANIFOLD_SOLID_BREP ( 'Chamfer1', #261 ) ;
#240 = AXIS2_PLACEMENT_3D ( 'NONE', #134, #36, #129 ) ;
#241 = APPROVAL_STATUS ( 'not_yet_approved' ) ;
#242 =( GEOMETRIC_REPRESENTATION_CONTEXT ( 3 ) GLOBAL_UNCERTAINTY_ASSIGNED_CONTEXT ( ( #165 ) ) GLOBAL_UNIT_ASSIGNED_CONTEXT ( ( #18, #61, #163 ) ) REPRESENTATION_CONTEXT ( 'NONE', 'WORKASPACE' ) );
#243 = DIRECTION ( 'NONE',  ( 0.000000000000000000, 0.000000000000000000, 1.000000000000000000 ) ) ;
#244 = CARTESIAN_POINT ( 'NONE',  ( -3.400000000000000355, 4.776122516674678272E-16, 7.000000000000000000 ) ) ;
#245 = PERSON_AND_ORGANIZATION ( #41, #217 ) ;
#246 = DIRECTION ( 'NONE',  ( -0.000000000000000000, -0.000000000000000000, -1.000000000000000000 ) ) ;
#247 = EDGE_CURVE ( 'NONE', #280, #1, #17, .T. ) ;
#248 = CIRCLE ( 'NONE', #215, 3.400000000000000355 ) ;
#249 = CC_DESIGN_APPROVAL ( #45, ( #233 ) ) ;
#250 = ORIENTED_EDGE ( 'NONE', *, *, #167, .F. ) ;
#251 = APPROVAL_ROLE ( '' ) ;
#252 = PLANE ( 'NONE',  #287 ) ;
#253 = CARTESIAN_POINT ( 'NONE',  ( -5.000000000000000000, 0.000000000000000000, 0.2499999999999945877 ) ) ;
#254 = CIRCLE ( 'NONE', #114, 4.400000000000000355 ) ;
#255 = CARTESIAN_POINT ( 'NONE',  ( -5.000000000000000000, 0.000000000000000000, 1.000000000000000000 ) ) ;
#256 = CC_DESIGN_PERSON_AND_ORGANIZATION_ASSIGNMENT ( #93, #302, ( #135 ) ) ;
#257 = DIRECTION ( 'NONE',  ( 1.000000000000000000, 0.000000000000000000, 0.000000000000000000 ) ) ;
#258 = FACE_OUTER_BOUND ( 'NONE', #43, .T. ) ;
#259 = EDGE_CURVE ( 'NONE', #46, #200, #197, .T. ) ;
#260 = DIRECTION ( 'NONE',  ( -1.000000000000000000, 1.224646799147352961E-16, 0.000000000000000000 ) ) ;
#261 = CLOSED_SHELL ( 'NONE', ( #124, #312, #95, #140, #63, #38, #142, #50, #119, #107 ) ) ;
#262 = LOCAL_TIME ( 10, 51, 35.00000000000000000, #70 ) ;
#263 = CARTESIAN_POINT ( 'NONE',  ( -4.400000000000000355, 0.000000000000000000, 6.000000000000000000 ) ) ;
#264 = APPLICATION_PROTOCOL_DEFINITION ( 'international standard', 'config_control_design', 1994, #218 ) ;
#265 = DIRECTION ( 'NONE',  ( -0.000000000000000000, -0.000000000000000000, 1.000000000000000000 ) ) ;
#266 = DIRECTION ( 'NONE',  ( 1.000000000000000000, 0.000000000000000000, 0.000000000000000000 ) ) ;
#267 = DIRECTION ( 'NONE',  ( 0.000000000000000000, 0.000000000000000000, -1.000000000000000000 ) ) ;
#268 = EDGE_CURVE ( 'NONE', #200, #46, #105, .T. ) ;
#269 = APPROVAL_DATE_TIME ( #44, #29 ) ;
#270 = ORIENTED_EDGE ( 'NONE', *, *, #130, .F. ) ;
#271 = AXIS2_PLACEMENT_3D ( 'NONE', #108, #286, #34 ) ;
#272 = CALENDAR_DATE ( 2025, 30, 7 ) ;
#273 = ORIENTED_EDGE ( 'NONE', *, *, #69, .F. ) ;
#274 = CALENDAR_DATE ( 2025, 30, 7 ) ;
#275 = ORIENTED_EDGE ( 'NONE', *, *, #268, .F. ) ;
#276 = EDGE_CURVE ( 'NONE', #198, #46, #191, .T. ) ;
#277 = ORIENTED_EDGE ( 'NONE', *, *, #86, .T. ) ;
#278 = AXIS2_PLACEMENT_3D ( 'NONE', #206, #112, #309 ) ;
#279 = AXIS2_PLACEMENT_3D ( 'NONE', #162, #267, #40 ) ;
#280 = VERTEX_POINT ( 'NONE', #263 ) ;
#281 = DIRECTION ( 'NONE',  ( -0.000000000000000000, -0.000000000000000000, -1.000000000000000000 ) ) ;
#282 = EDGE_CURVE ( 'NONE', #200, #52, #90, .T. ) ;
#283 = DIRECTION ( 'NONE',  ( 1.000000000000000000, 0.000000000000000000, 0.000000000000000000 ) ) ;
#284 = CARTESIAN_POINT ( 'NONE',  ( 0.000000000000000000, 0.000000000000000000, 6.000000000000000000 ) ) ;
#285 = CYLINDRICAL_SURFACE ( 'NONE', #321, 4.400000000000000355 ) ;
#286 = DIRECTION ( 'NONE',  ( -0.000000000000000000, -0.000000000000000000, -1.000000000000000000 ) ) ;
#287 = AXIS2_PLACEMENT_3D ( 'NONE', #102, #243, #325 ) ;
#288 = APPROVAL_PERSON_ORGANIZATION ( #48, #29, #326 ) ;
#289 = DIRECTION ( 'NONE',  ( 1.000000000000000000, 0.000000000000000000, 0.000000000000000000 ) ) ;
#290 = CC_DESIGN_PERSON_AND_ORGANIZATION_ASSIGNMENT ( #73, #144, ( #120 ) ) ;
#291 = CARTESIAN_POINT ( 'NONE',  ( 0.000000000000000000, 0.000000000000000000, 6.000000000000000000 ) ) ;
#292 = VERTEX_POINT ( 'NONE', #188 ) ;
#293 = CIRCLE ( 'NONE', #20, 1.000000000000000000 ) ;
#294 = AXIS2_PLACEMENT_3D ( 'NONE', #60, #87, #266 ) ;
#295 = DIRECTION ( 'NONE',  ( -0.7071067811865511255, 0.000000000000000000, -0.7071067811865440200 ) ) ;
#296 = EDGE_LOOP ( 'NONE', ( #15, #277, #22, #68 ) ) ;
#297 = CC_DESIGN_PERSON_AND_ORGANIZATION_ASSIGNMENT ( #196, #101, ( #233 ) ) ;
#298 = COORDINATED_UNIVERSAL_TIME_OFFSET ( 5, 0, .BEHIND. ) ;
#299 = APPROVAL_STATUS ( 'not_yet_approved' ) ;
#300 = ORIENTED_EDGE ( 'NONE', *, *, #187, .T. ) ;
#301 = AXIS2_PLACEMENT_3D ( 'NONE', #235, #205, #64 ) ;
#302 = PERSON_AND_ORGANIZATION_ROLE ( 'creator' ) ;
#303 = CARTESIAN_POINT ( 'NONE',  ( 4.400000000000000355, 5.388445916248354013E-16, 6.000000000000000000 ) ) ;
#304 = APPLICATION_CONTEXT ( 'configuration controlled 3d designs of mechanical parts and assemblies' ) ;
#305 = ORIENTED_EDGE ( 'NONE', *, *, #276, .F. ) ;
#306 = FACE_OUTER_BOUND ( 'NONE', #122, .T. ) ;
#307 = VECTOR ( 'NONE', #154, 1000.000000000000000 ) ;
#308 = LOCAL_TIME ( 10, 51, 35.00000000000000000, #24 ) ;
#309 = DIRECTION ( 'NONE',  ( 1.000000000000000000, 0.000000000000000000, -0.000000000000000000 ) ) ;
#310 = FACE_OUTER_BOUND ( 'NONE', #172, .T. ) ;
#311 = AXIS2_PLACEMENT_3D ( 'NONE', #208, #186, #155 ) ;
#312 = ADVANCED_FACE ( 'NONE', ( #315 ), #322, .T. ) ;
#313 = CARTESIAN_POINT ( 'NONE',  ( 0.000000000000000000, 0.000000000000000000, 1.000000000000000000 ) ) ;
#314 = FACE_OUTER_BOUND ( 'NONE', #76, .T. ) ;
#315 = FACE_OUTER_BOUND ( 'NONE', #176, .T. ) ;
#316 = DIRECTION ( 'NONE',  ( 0.000000000000000000, 0.000000000000000000, 1.000000000000000000 ) ) ;
#317 = CC_DESIGN_DATE_AND_TIME_ASSIGNMENT ( #78, #98, ( #135 ) ) ;
#318 = DIRECTION ( 'NONE',  ( 0.7071067811865511255, 8.659560562354977232E-17, -0.7071067811865440200 ) ) ;
#319 = DIRECTION ( 'NONE',  ( -0.000000000000000000, -0.000000000000000000, -1.000000000000000000 ) ) ;
#320 = LINE ( 'NONE', #210, #156 ) ;
#321 = AXIS2_PLACEMENT_3D ( 'NONE', #85, #56, #55 ) ;
#322 = TOROIDAL_SURFACE ( 'NONE', #294, 3.400000000000000355, 1.000000000000000000 ) ;
#323 = COORDINATED_UNIVERSAL_TIME_OFFSET ( 5, 0, .BEHIND. ) ;
#324 = ORIENTED_EDGE ( 'NONE', *, *, #35, .F. ) ;
#325 = DIRECTION ( 'NONE',  ( 1.000000000000000000, 0.000000000000000000, -0.000000000000000000 ) ) ;
#326 = APPROVAL_ROLE ( '' ) ;
#327 = ORIENTED_EDGE ( 'NONE', *, *, #190, .F. ) ;
ENDSEC;
END-ISO-10303-21;
